<svg xmlns="http://www.w3.org/2000/svg" viewBox="0 0 320 320" role="img" aria-label="Animated happy hamster">
  <defs>
    <filter id="shadow" x="-20%" y="-20%" width="140%" height="140%">
      <feDropShadow dx="0" dy="10" stdDeviation="10" flood-color="#bf8c73" flood-opacity="0.28"/>
    </filter>
  </defs>
  <rect width="320" height="320" fill="none"/>
  <g filter="url(#shadow)">
    <ellipse cx="110" cy="78" rx="32" ry="35" fill="#f4b7c1"/>
    <ellipse cx="210" cy="78" rx="32" ry="35" fill="#f4b7c1"/>
    <g>
      <animateTransform attributeName="transform" type="translate" values="0 0; 0 -10; 0 0" dur="1.4s" repeatCount="indefinite"/>
      <ellipse cx="160" cy="182" rx="94" ry="88" fill="#efd7bf"/>
      <ellipse cx="160" cy="158" rx="86" ry="74" fill="#f7e7d2"/>
      <ellipse cx="128" cy="120" rx="28" ry="30" fill="#d5a389"/>
      <ellipse cx="192" cy="120" rx="28" ry="30" fill="#d5a389"/>
      <path d="M118 160 Q130 174 142 160" fill="none" stroke="#2f2231" stroke-width="6" stroke-linecap="round"/>
      <path d="M178 160 Q190 174 202 160" fill="none" stroke="#2f2231" stroke-width="6" stroke-linecap="round"/>
      <ellipse cx="160" cy="186" rx="16" ry="13" fill="#ff8aa5"/>
      <path d="M140 202 Q160 225 180 202" fill="none" stroke="#7e4f4c" stroke-width="6" stroke-linecap="round"/>
      <ellipse cx="103" cy="187" rx="13" ry="9" fill="#f7b9bd" opacity="0.8"/>
      <ellipse cx="217" cy="187" rx="13" ry="9" fill="#f7b9bd" opacity="0.8"/>
      <ellipse cx="122" cy="236" rx="22" ry="15" fill="#f2c5a8"/>
      <ellipse cx="198" cy="236" rx="22" ry="15" fill="#f2c5a8"/>
    </g>
    <g>
      <path d="M74 98 C84 84 100 84 109 98 C114 108 108 121 93 132 C78 121 70 108 74 98Z" fill="#ff5b93">
        <animateTransform attributeName="transform" type="translate" values="0 0; 0 -8; 0 0" dur="1.2s" repeatCount="indefinite"/>
      </path>
      <path d="M222 92 C232 78 248 78 257 92 C262 102 256 115 241 126 C226 115 218 102 222 92Z" fill="#ff6ea8">
        <animateTransform attributeName="transform" type="translate" values="0 0; 0 -10; 0 0" dur="1.5s" repeatCount="indefinite"/>
      </path>
    </g>
  </g>
</svg>
