<svg xmlns="http://www.w3.org/2000/svg" viewBox="0 0 320 320" role="img" aria-label="Animated sad hamster">
  <defs>
    <filter id="shadow" x="-20%" y="-20%" width="140%" height="140%">
      <feDropShadow dx="0" dy="10" stdDeviation="10" flood-color="#bf8c73" flood-opacity="0.28"/>
    </filter>
  </defs>
  <rect width="320" height="320" fill="none"/>
  <g filter="url(#shadow)">
    <ellipse cx="110" cy="78" rx="32" ry="35" fill="#f4b7c1"/>
    <ellipse cx="210" cy="78" rx="32" ry="35" fill="#f4b7c1"/>
    <g>
      <animateTransform attributeName="transform" type="translate" values="0 0; 0 5; 0 0" dur="2s" repeatCount="indefinite"/>
      <ellipse cx="160" cy="182" rx="94" ry="88" fill="#efd7bf"/>
      <ellipse cx="160" cy="158" rx="86" ry="74" fill="#f7e7d2"/>
      <ellipse cx="128" cy="120" rx="28" ry="30" fill="#d5a389"/>
      <ellipse cx="192" cy="120" rx="28" ry="30" fill="#d5a389"/>
      <path d="M118 156 Q130 148 142 156" fill="none" stroke="#2f2231" stroke-width="6" stroke-linecap="round"/>
      <path d="M178 156 Q190 148 202 156" fill="none" stroke="#2f2231" stroke-width="6" stroke-linecap="round"/>
      <circle cx="130" cy="168" r="7" fill="#2f2231"/>
      <circle cx="190" cy="168" r="7" fill="#2f2231"/>
      <ellipse cx="160" cy="188" rx="15" ry="12" fill="#ff8aa5"/>
      <path d="M144 214 Q160 196 176 214" fill="none" stroke="#7e4f4c" stroke-width="6" stroke-linecap="round"/>
      <path d="M114 176 C108 190 108 206 116 222" fill="none" stroke="#79c6ff" stroke-width="7" stroke-linecap="round">
        <animate attributeName="opacity" values="0.2;1;0.2" dur="1.2s" repeatCount="indefinite"/>
      </path>
      <ellipse cx="122" cy="236" rx="22" ry="15" fill="#f2c5a8"/>
      <ellipse cx="198" cy="236" rx="22" ry="15" fill="#f2c5a8"/>
    </g>
  </g>
</svg>
