<svg xmlns="http://www.w3.org/2000/svg" viewBox="0 0 320 320" role="img" aria-label="Animated cute hamster">
  <defs>
    <filter id="shadow" x="-20%" y="-20%" width="140%" height="140%">
      <feDropShadow dx="0" dy="10" stdDeviation="10" flood-color="#bf8c73" flood-opacity="0.28"/>
    </filter>
  </defs>
  <rect width="320" height="320" fill="none"/>
  <g filter="url(#shadow)">
    <ellipse cx="110" cy="78" rx="32" ry="35" fill="#f4b7c1"/>
    <ellipse cx="210" cy="78" rx="32" ry="35" fill="#f4b7c1"/>
    <g>
      <animateTransform attributeName="transform" type="translate" values="0 0; 0 -8; 0 0" dur="1.8s" repeatCount="indefinite"/>
      <ellipse cx="160" cy="182" rx="94" ry="88" fill="#efd7bf"/>
      <ellipse cx="160" cy="158" rx="86" ry="74" fill="#f7e7d2"/>
      <ellipse cx="128" cy="120" rx="28" ry="30" fill="#d5a389"/>
      <ellipse cx="192" cy="120" rx="28" ry="30" fill="#d5a389"/>
      <circle cx="130" cy="160" r="8" fill="#2f2231">
        <animate attributeName="ry" values="8;8;1;8;8" dur="3s" repeatCount="indefinite"/>
      </circle>
      <circle cx="190" cy="160" r="8" fill="#2f2231">
        <animate attributeName="ry" values="8;8;1;8;8" dur="3s" repeatCount="indefinite"/>
      </circle>
      <ellipse cx="160" cy="184" rx="16" ry="13" fill="#ff8aa5"/>
      <path d="M145 202 Q160 215 175 202" fill="none" stroke="#7e4f4c" stroke-width="6" stroke-linecap="round"/>
      <ellipse cx="103" cy="187" rx="13" ry="9" fill="#f7b9bd" opacity="0.8"/>
      <ellipse cx="217" cy="187" rx="13" ry="9" fill="#f7b9bd" opacity="0.8"/>
      <ellipse cx="122" cy="236" rx="22" ry="15" fill="#f2c5a8"/>
      <ellipse cx="198" cy="236" rx="22" ry="15" fill="#f2c5a8"/>
    </g>
  </g>
</svg>
